<svg width="165" height="165" xmlns="http://www.w3.org/2000/svg" xmlns:xlink="http://www.w3.org/1999/xlink" xml:space="preserve" overflow="hidden"><defs><clipPath id="clip0"><rect x="464" y="330" width="165" height="165"/></clipPath></defs><g clip-path="url(#clip0)" transform="translate(-464 -330)"><path d="M534 330C562.544 330 586.022 351.875 588.845 379.907L589 383 561.061 383 561.051 382.788C559.658 368.962 548.079 358.172 534 358.172 519.921 358.172 508.342 368.962 506.949 382.788L506.938 383 479 383 479.155 379.907C481.978 351.875 505.456 330 534 330Z" fill="#404040" fill-rule="evenodd"/><rect x="479" y="330" width="28.0002" height="68.0001" fill="#767171"/><path d="M589.742 392 589.742 440.653 589.78 440.653 589.742 441.401C589.742 455.48 600.367 467.06 613.982 468.453L616 468.555 616 495 611.145 494.753C583.541 491.93 562 468.451 562 439.906 562 420.28 572.182 403.05 587.515 393.281L589.742 392Z" fill="#BFBFBF" fill-rule="evenodd"/><path d="M479.058 368 506.883 397.342C506.922 411.895 506.961 426.447 507 441L479 441C479.078 416.667 478.98 392.333 479.058 368Z" fill="#C00000" fill-rule="evenodd"/><rect x="561" y="383" width="27.9998" height="58.0001" fill="#E3C325"/><rect x="540" y="399" width="71.9998" height="27.9998" fill="#008B8B"/></g></svg>